# xmcd
#
# Track frame offsets:
#	150
#	16802
#	32223
#	48282
#	61343
#	78245
#	97719
#	116993
#	133749
#	152442
#	166388
#	182342
#	201004
#	220516
#	240813
#	260361
#	277947
#	292566
#	305190
#	317938
#
# Disc length: 4507
#
# Revision: 21
# Processed by: cddbd v1.5.1PL0 Copyright (c) Steve Scherf et al.
# Submitted via: audiograbber 1.83.01
# Normalized: r20:DSETVAR1,TDELIM( - )
#
DISCID=fd119914
DTITLE=Various Artist - Euro Express 582 ( September 10.04. Cd1 )
DYEAR=2004
DGENRE=Pop
TTITLE0=Calibre - Drop It Down
TTITLE1=Dizzee Rascal - Give U More
TTITLE2=Elephant Man - Bun Bad Mind
TTITLE3=Evil Ed - Nico Suave
TTITLE4=Fabolous - Breathe
TTITLE5=Gemma Fox feat. Juelz Santana - Gone
TTITLE6=High Contrast - Racing Green
TTITLE7=JD and Tubby - Bananas
TTITLE8=K. Ners - Thru These Times
TTITLE9=Lethal B feat. Fumin and D Double - Forward Riddim
TTITLE10=Nate James feat. Shaun Hollywood - Set The Tone - Radio Edit
TTITLE11=Nathan - Come Into My Room
TTITLE12=Nelly feat. Christina Aguilera - Tilt Your Head
TTITLE13=Nikki Slim Ting - The Link Up
TTITLE14=Pete Rock - It's A Love Thing
TTITLE15=Robbie Williams - Radio
TTITLE16=Shola Ama - With You
TTITLE17=Skandalous Unlimited - Watford Weather
TTITLE18=Skinnyman - I'll Be Surprised
TTITLE19=Snoop Dogg feat. Pharrell - Drop It Like It's Hot - Radio Edit #1
EXTD=
EXTT0=
EXTT1=
EXTT2=
EXTT3=
EXTT4=
EXTT5=
EXTT6=
EXTT7=
EXTT8=
EXTT9=
EXTT10=
EXTT11=
EXTT12=
EXTT13=
EXTT14=
EXTT15=
EXTT16=
EXTT17=
EXTT18=
EXTT19=
PLAYORDER=
